<svg viewBox="0 0 28 27" fill="none" xmlns="http://www.w3.org/2000/svg">
<path d="M2.88879 22.3588H25.111M13.9999 22.3588H22.8888V16.1011C22.8888 15.5173 22.8888 15.2255 22.8188 14.9532C22.7568 14.7119 22.6545 14.4829 22.5164 14.2755C22.3607 14.0414 22.1438 13.8463 21.7095 13.4561L19.154 11.1602C18.314 10.4056 17.8938 10.0283 17.419 9.88514C17.0007 9.75906 16.5545 9.75906 16.1362 9.88514C15.6614 10.0283 15.2415 10.4056 14.4015 11.1602L13.9999 11.521M13.9999 22.3588V8.13656C13.9999 6.89199 14.0001 6.26979 13.7579 5.79443C13.5449 5.3763 13.2045 5.03631 12.7863 4.82326C12.311 4.58105 11.6891 4.58105 10.4446 4.58105H8.66679C7.42223 4.58105 6.79948 4.58105 6.32412 4.82326C5.90599 5.03631 5.56628 5.3763 5.35322 5.79443C5.11102 6.26979 5.11102 6.89199 5.11102 8.13656V22.3588H13.9999Z" stroke="#005F97" stroke-width="2" stroke-linecap="round" stroke-linejoin="round"/>
</svg>
