<svg viewBox="0 0 180 47" fill="none" xmlns="http://www.w3.org/2000/svg">
<g clip-path="url(#clip0_3060_12586)">
<path d="M60.1587 36.9655C57.6389 36.9655 55.6808 36.28 54.284 34.9093C52.9145 33.511 52.2299 31.5507 52.2299 29.0284V19.1584H48.3682V14.3468H48.779C49.8744 14.3468 50.7235 14.0589 51.3261 13.4831C51.9285 12.9074 52.2299 12.0712 52.2299 10.9745V9.24725H57.6116V14.3468H62.7469V19.1584H57.6116V28.7405C57.6116 29.4808 57.7349 30.1113 57.9813 30.6323C58.2551 31.1532 58.6659 31.5507 59.2138 31.8249C59.789 32.0991 60.5146 32.2361 61.3912 32.2361C61.5828 32.2361 61.802 32.2225 62.0485 32.195C62.3222 32.1675 62.5825 32.1402 62.829 32.1128V36.7188C62.4455 36.7735 62.0074 36.8285 61.5144 36.8833C61.0214 36.938 60.5695 36.9655 60.1587 36.9655ZM74.177 37.2123C72.4516 37.2123 70.9452 36.8285 69.658 36.0608C68.3981 35.293 67.4258 34.2238 66.7412 32.853C66.0839 31.4822 65.7552 29.8783 65.7552 28.0414V14.3468H71.137V27.589C71.137 28.5212 71.3149 29.3437 71.671 30.0565C72.0544 30.742 72.5885 31.2903 73.2732 31.7015C73.9853 32.0853 74.7795 32.2773 75.656 32.2773C76.5323 32.2773 77.3129 32.0853 77.9977 31.7015C78.6823 31.2903 79.2163 30.7282 79.5998 30.0154C79.9832 29.3026 80.175 28.4526 80.175 27.4656V14.3468H85.5567V36.7188H80.4626V32.3184L80.9145 33.0998C80.3941 34.4705 79.5313 35.4987 78.3263 36.1841C77.1486 36.8696 75.7654 37.2123 74.177 37.2123ZM89.8257 36.7188V14.3468H94.8788V19.3229L94.468 18.5826C94.9884 16.9102 95.7964 15.745 96.8918 15.087C98.0148 14.429 99.3568 14.1 100.918 14.1H102.232V18.8705H100.302C98.768 18.8705 97.5355 19.3503 96.6043 20.3099C95.6732 21.2421 95.2075 22.5581 95.2075 24.2579V36.7188H89.8257ZM107.046 36.7188V19.1584H103.102V14.3468H107.046V13.6065C107.046 11.9067 107.388 10.4673 108.073 9.28838C108.785 8.08205 109.771 7.16358 111.031 6.533C112.291 5.90242 113.783 5.58713 115.509 5.58713C115.838 5.58713 116.193 5.61455 116.577 5.66938C116.988 5.6968 117.33 5.73792 117.604 5.79275V10.4399C117.33 10.385 117.07 10.3576 116.823 10.3576C116.604 10.3302 116.399 10.3165 116.207 10.3165C115.002 10.3165 114.071 10.5907 113.414 11.139C112.756 11.6599 112.428 12.4824 112.428 13.6065V14.3468H117.399V19.1584H112.428V36.7188H107.046ZM126.982 44.9438V14.3468H132.035V18.7883L131.542 17.6779C132.309 16.4716 133.349 15.5394 134.664 14.8814C135.979 14.196 137.499 13.8533 139.224 13.8533C141.333 13.8533 143.237 14.3742 144.935 15.416C146.633 16.4578 147.974 17.856 148.96 19.6108C149.974 21.3655 150.48 23.3395 150.48 25.5328C150.48 27.6987 149.987 29.6727 149.001 31.4548C148.015 33.2368 146.674 34.6488 144.976 35.6906C143.278 36.7051 141.347 37.2123 139.183 37.2123C137.567 37.2123 136.075 36.8969 134.705 36.2664C133.363 35.6084 132.295 34.6762 131.501 33.4699L132.363 32.4006V44.9438H126.982ZM138.567 32.2773C139.799 32.2773 140.895 31.9894 141.853 31.4136C142.812 30.8379 143.552 30.0428 144.072 29.0284C144.62 28.0139 144.893 26.8488 144.893 25.5328C144.893 24.2168 144.62 23.0653 144.072 22.0783C143.552 21.0638 142.812 20.2688 141.853 19.693C140.895 19.0898 139.799 18.7883 138.567 18.7883C137.389 18.7883 136.321 19.0761 135.362 19.6519C134.431 20.2276 133.692 21.0365 133.144 22.0783C132.624 23.0927 132.363 24.2442 132.363 25.5328C132.363 26.8488 132.624 28.0139 133.144 29.0284C133.692 30.0428 134.431 30.8379 135.362 31.4136C136.321 31.9894 137.389 32.2773 138.567 32.2773ZM164.696 45.7663C163.025 45.7663 161.478 45.492 160.054 44.9438C158.629 44.3955 157.396 43.6278 156.356 42.6408C155.342 41.6812 154.603 40.5434 154.138 39.2274L159.15 37.3356C159.478 38.3774 160.123 39.2137 161.081 39.8443C162.067 40.5023 163.271 40.8312 164.696 40.8312C165.792 40.8312 166.75 40.6256 167.572 40.2144C168.421 39.8031 169.078 39.1999 169.544 38.4049C170.009 37.6372 170.242 36.7051 170.242 35.6084V30.5089L171.269 31.7426C170.502 33.0861 169.475 34.1004 168.188 34.7859C166.901 35.4713 165.435 35.814 163.792 35.814C161.71 35.814 159.848 35.3342 158.205 34.3746C156.562 33.4151 155.275 32.0991 154.343 30.4266C153.412 28.7542 152.946 26.8762 152.946 24.7925C152.946 22.6815 153.412 20.8034 154.343 19.1584C155.275 17.5134 156.548 16.2248 158.164 15.2926C159.779 14.333 161.615 13.8533 163.669 13.8533C165.34 13.8533 166.804 14.2097 168.065 14.9225C169.351 15.608 170.419 16.6086 171.269 17.9246L170.53 19.2818V14.3468H175.624V35.6084C175.624 37.5549 175.144 39.296 174.186 40.8312C173.254 42.3665 171.967 43.573 170.324 44.4503C168.709 45.3275 166.832 45.7663 164.696 45.7663ZM164.449 30.8379C165.6 30.8379 166.599 30.5911 167.448 30.0976C168.324 29.5767 169.009 28.8639 169.502 27.9591C169.995 27.0544 170.242 26.0126 170.242 24.8336C170.242 23.6821 169.982 22.654 169.461 21.7493C168.968 20.817 168.283 20.0906 167.407 19.5696C166.558 19.0487 165.572 18.7883 164.449 18.7883C163.327 18.7883 162.313 19.0487 161.409 19.5696C160.506 20.0906 159.794 20.817 159.273 21.7493C158.78 22.654 158.534 23.6821 158.534 24.8336C158.534 25.9851 158.78 27.0133 159.273 27.918C159.794 28.8228 160.492 29.5355 161.368 30.0565C162.272 30.5775 163.299 30.8379 164.449 30.8379Z" fill="#1A9C4D"/>
<path d="M38.5074 9.13883L39.9707 9.03078C39.9165 8.29733 39.3289 7.71696 38.5956 7.67274L38.5074 9.13883ZM6.79293 37.8291L5.5706 38.6415C5.70322 38.8414 5.88279 39.0059 6.09357 39.1203L6.79293 37.8291ZM0.983489 41.1037C0.38229 41.6476 0.335355 42.5763 0.878658 43.1782C1.42196 43.7799 2.34976 43.8269 2.95096 43.283L0.983489 41.1037ZM17.8753 29.7817C18.4766 29.2378 18.5236 28.3091 17.9802 27.7072C17.4369 27.1055 16.5091 27.0585 15.908 27.6024L17.8753 29.7817ZM37.0442 9.24687C37.9581 21.6501 34.732 30.8264 29.3617 35.6846C24.0951 40.4489 16.4042 41.3751 7.49229 36.5379L6.09357 39.1203C15.8372 44.409 24.9362 43.6474 31.3292 37.8639C37.6187 32.1741 40.922 21.9422 39.9707 9.03078L37.0442 9.24687ZM8.01527 37.0166C5.34636 32.9927 4.32138 29.3032 4.55432 26.0956C4.78579 22.9081 6.27046 20.0293 8.94264 17.6121C14.3512 12.7192 24.6044 9.77173 38.4191 10.6049L38.5956 7.67274C24.427 6.81821 13.2264 9.77749 6.97516 15.4326C3.81747 18.2892 1.92082 21.8447 1.62761 25.8826C1.33585 29.9002 2.64282 34.2272 5.5706 38.6415L8.01527 37.0166ZM2.95096 43.283L17.8753 29.7817L15.908 27.6024L0.983489 41.1037L2.95096 43.283Z" fill="#1A9C4D"/>
</g>
<defs>
<clipPath id="clip0_3060_12586">
<rect width="179" height="47" fill="white" transform="translate(0.5)"/>
</clipPath>
</defs>
</svg>
