<svg width="16" height="16" viewBox="0 0 16 16" fill="none" xmlns="http://www.w3.org/2000/svg">
<path d="M8.01553 0H7.9791C3.57237 0 0 3.57342 0 7.98145V8.01789C0 12.4259 3.57237 15.9993 7.9791 15.9993H8.01553C12.4223 15.9993 15.9946 12.4259 15.9946 8.01789V7.98145C15.9946 3.57342 12.4223 0 8.01553 0Z" fill="#545457"/>
<path d="M10.4723 3.25513H5.52309C4.15579 3.25513 3.04346 4.36779 3.04346 5.73549V10.2646C3.04346 11.6323 4.15579 12.745 5.52309 12.745H10.4723C11.8396 12.745 12.9519 11.6323 12.9519 10.2646V5.73549C12.9519 4.36779 11.8396 3.25513 10.4723 3.25513ZM3.91819 5.73549C3.91819 4.85041 4.63827 4.13012 5.52309 4.13012H10.4723C11.3571 4.13012 12.0772 4.85041 12.0772 5.73549V10.2646C12.0772 11.1497 11.3571 11.87 10.4723 11.87H5.52309C4.63827 11.87 3.91819 11.1497 3.91819 10.2646V5.73549Z" fill="white"/>
<path d="M7.99765 10.3069C9.26912 10.3069 10.3041 9.2722 10.3041 7.99979C10.3041 6.72737 9.26968 5.69263 7.99765 5.69263C6.72561 5.69263 5.69116 6.72737 5.69116 7.99979C5.69116 9.2722 6.72561 10.3069 7.99765 10.3069ZM7.99765 6.56818C8.78721 6.56818 9.42939 7.21055 9.42939 8.00035C9.42939 8.79014 8.78721 9.43251 7.99765 9.43251C7.20808 9.43251 6.5659 8.79014 6.5659 8.00035C6.5659 7.21055 7.20808 6.56818 7.99765 6.56818Z" fill="white"/>
<path d="M10.5177 6.06529C10.8601 6.06529 11.1391 5.7867 11.1391 5.44366C11.1391 5.10061 10.8606 4.82202 10.5177 4.82202C10.1747 4.82202 9.89624 5.10061 9.89624 5.44366C9.89624 5.7867 10.1747 6.06529 10.5177 6.06529Z" fill="white"/>
</svg>
