<svg width="17" height="16" viewBox="0 0 17 16" fill="none" xmlns="http://www.w3.org/2000/svg">
<path d="M9.00527 0H8.96885C4.56212 0 0.989746 3.57342 0.989746 7.98145V8.01789C0.989746 12.4259 4.56212 15.9993 8.96885 15.9993H9.00527C13.412 15.9993 16.9844 12.4259 16.9844 8.01789V7.98145C16.9844 3.57342 13.412 0 9.00527 0Z" fill="#545457"/>
<path d="M4.80425 5.31775C4.59355 5.12212 4.48877 4.87997 4.48877 4.59186C4.48877 4.30374 4.59411 4.05094 4.80425 3.85475C5.01495 3.65913 5.28617 3.56104 5.61847 3.56104C5.95077 3.56104 6.21134 3.65913 6.42148 3.85475C6.63218 4.05038 6.73696 4.29646 6.73696 4.59186C6.73696 4.88726 6.63162 5.12212 6.42148 5.31775C6.21078 5.51337 5.94348 5.61147 5.61847 5.61147C5.29346 5.61147 5.01495 5.51337 4.80425 5.31775ZM6.55989 6.43994V12.4377H4.66528V6.43994H6.55989Z" fill="white"/>
<path d="M12.867 7.0325C13.2799 7.48093 13.4862 8.0964 13.4862 8.88003V12.3318H11.6868V9.1233C11.6868 8.72812 11.5843 8.42095 11.3797 8.20234C11.1752 7.98373 10.8995 7.87387 10.5543 7.87387C10.2091 7.87387 9.93342 7.98317 9.72888 8.20234C9.52435 8.42095 9.4218 8.72812 9.4218 9.1233V12.3318H7.61182V6.4232H9.4218V7.20683C9.60504 6.94562 9.85217 6.73935 10.1626 6.58744C10.4731 6.43554 10.8222 6.35986 11.2105 6.35986C11.902 6.35986 12.4545 6.58408 12.867 7.03194V7.0325Z" fill="white"/>
</svg>
