<svg width="15" height="16" viewBox="0 0 15 16" fill="none" xmlns="http://www.w3.org/2000/svg">
<path d="M8.29301 3.98107C8.55206 3.65785 8.50004 3.18584 8.17682 2.92679C7.85361 2.66774 7.38159 2.71976 7.12255 3.04298L8.29301 3.98107ZM1.83593 10.8384L2.40396 11.3281C2.40981 11.3213 2.41555 11.3144 2.42116 11.3074L1.83593 10.8384ZM1.66568 11.2545L0.917141 11.2057L0.916487 11.2198L1.66568 11.2545ZM1.5263 14.2641L0.777107 14.2294C0.775383 14.2667 0.776437 14.304 0.780262 14.3411L1.5263 14.2641ZM2.30982 14.9481L2.33433 15.6977C2.38435 15.6961 2.43408 15.6894 2.48277 15.6779L2.30982 14.9481ZM5.29652 14.2403L5.4695 14.9701L5.48114 14.9672L5.29652 14.2403ZM5.67981 13.9973L6.25842 14.4746L6.26491 14.4665L5.67981 13.9973ZM12.2781 6.96793C12.5373 6.64478 12.4854 6.17275 12.1622 5.91362C11.8391 5.65448 11.3671 5.70637 11.1079 6.02952L12.2781 6.96793ZM7.12569 3.04281C6.86653 3.36594 6.9184 3.83797 7.24152 4.09713C7.56465 4.35628 8.03668 4.30442 8.29584 3.98129L7.12569 3.04281ZM9.29172 1.54083L9.8768 2.01007C9.88666 1.99778 9.89612 1.98518 9.90519 1.9723L9.29172 1.54083ZM10.9135 1.22225L11.3933 0.645808C11.3694 0.625927 11.3443 0.60755 11.3182 0.590783L10.9135 1.22225ZM13.1406 3.07599L13.6714 2.54615C13.6551 2.52984 13.6381 2.51429 13.6204 2.49955L13.1406 3.07599ZM13.476 3.89323L14.226 3.89735V3.89735L13.476 3.89323ZM13.1316 4.70673L12.6067 4.17109C12.5854 4.19193 12.5654 4.21401 12.5468 4.23722L13.1316 4.70673ZM11.1082 6.02924C10.8489 6.35225 10.9005 6.82431 11.2235 7.08361C11.5465 7.34292 12.0186 7.29127 12.2779 6.96826L11.1082 6.02924ZM8.45248 3.40087C8.3911 2.99123 8.00925 2.70892 7.59962 2.7703C7.18998 2.83169 6.90766 3.21353 6.96905 3.62317L8.45248 3.40087ZM11.794 7.24189C12.2045 7.18612 12.492 6.80819 12.4362 6.39774C12.3804 5.9873 12.0025 5.69978 11.5921 5.75555L11.794 7.24189ZM7.12255 3.04298L1.25069 10.3694L2.42116 11.3074L8.29301 3.98107L7.12255 3.04298ZM1.26789 10.3487C1.06098 10.5887 0.937895 10.8895 0.917273 11.2057L2.41409 11.3034C2.4135 11.3125 2.40994 11.3212 2.40396 11.3281L1.26789 10.3487ZM0.916487 11.2198L0.777107 14.2294L2.2755 14.2988L2.41488 11.2892L0.916487 11.2198ZM0.780262 14.3411C0.861755 15.1312 1.54048 15.7237 2.33433 15.6977L2.2853 14.1985C2.28254 14.1986 2.2814 14.1982 2.28077 14.198C2.27974 14.1976 2.27822 14.1968 2.27659 14.1954C2.27497 14.194 2.27398 14.1926 2.27347 14.1916C2.27316 14.191 2.27263 14.1899 2.27235 14.1872L0.780262 14.3411ZM2.48277 15.6779L5.46948 14.97L5.12356 13.5105L2.13686 14.2183L2.48277 15.6779ZM5.48114 14.9672C5.78597 14.8898 6.05822 14.7172 6.25836 14.4746L5.10126 13.5201C5.104 13.5168 5.10773 13.5144 5.1119 13.5133L5.48114 14.9672ZM6.26491 14.4665L12.2781 6.96793L11.1079 6.02952L5.0947 13.5281L6.26491 14.4665ZM8.29584 3.98129L9.8768 2.01007L8.70665 1.07159L7.12569 3.04281L8.29584 3.98129ZM9.90519 1.9723C10.0422 1.7775 10.3083 1.72522 10.5088 1.85371L11.3182 0.590783C10.4413 0.0288622 9.2774 0.257498 8.67826 1.10936L9.90519 1.9723ZM10.4337 1.79869L12.6608 3.65243L13.6204 2.49955L11.3933 0.645808L10.4337 1.79869ZM12.6098 3.60583C12.6848 3.68097 12.7266 3.78295 12.726 3.88911L14.226 3.89735C14.2288 3.391 14.0291 2.90453 13.6714 2.54615L12.6098 3.60583ZM12.726 3.88911C12.7255 3.99527 12.6825 4.09679 12.6067 4.17109L13.6566 5.24237C14.0182 4.88795 14.2232 4.4037 14.226 3.89735L12.726 3.88911ZM12.5468 4.23722L11.1082 6.02924L12.2779 6.96826L13.7165 5.17624L12.5468 4.23722ZM6.96905 3.62317C7.31712 5.94593 9.4667 7.55812 11.794 7.24189L11.5921 5.75555C10.0777 5.96132 8.67897 4.91227 8.45248 3.40087L6.96905 3.62317Z" fill="#9E9E9E"/>
</svg>
