<svg  viewBox="0 0 43 43" fill="none" xmlns="http://www.w3.org/2000/svg">
<path d="M6.625 40.625H36.375C38.7222 40.625 40.625 38.7222 40.625 36.375V6.625C40.625 4.27779 38.7222 2.375 36.375 2.375H6.625C4.27779 2.375 2.375 4.27779 2.375 6.625V36.375C2.375 38.7222 4.27779 40.625 6.625 40.625ZM6.625 40.625L30 17.25L40.625 27.875M17.25 14.0625C17.25 15.8229 15.8229 17.25 14.0625 17.25C12.3021 17.25 10.875 15.8229 10.875 14.0625C10.875 12.3021 12.3021 10.875 14.0625 10.875C15.8229 10.875 17.25 12.3021 17.25 14.0625Z" stroke="#005F97" stroke-width="4" stroke-linecap="round" stroke-linejoin="round"/>
</svg>
