<svg viewBox="0 0 10 10" fill="none" xmlns="http://www.w3.org/2000/svg">
<path d="M5.83331 3.74992V2.08325C5.83331 1.75173 5.70162 1.43379 5.4672 1.19937C5.23278 0.964948 4.91483 0.833252 4.58331 0.833252L2.91665 4.58325V9.16658H7.61665C7.81762 9.16886 8.01264 9.09842 8.16577 8.96825C8.31891 8.83809 8.41985 8.65696 8.44998 8.45825L9.02498 4.70825C9.04311 4.58882 9.03505 4.46687 9.00137 4.35086C8.96769 4.23484 8.90919 4.12754 8.82992 4.03638C8.75065 3.94522 8.65251 3.87239 8.5423 3.82293C8.43209 3.77346 8.31244 3.74855 8.19165 3.74992H5.83331ZM2.91665 9.16658H1.66665C1.44563 9.16658 1.23367 9.07879 1.07739 8.92251C0.92111 8.76623 0.833313 8.55427 0.833313 8.33325V5.41658C0.833313 5.19557 0.92111 4.98361 1.07739 4.82733C1.23367 4.67105 1.44563 4.58325 1.66665 4.58325H2.91665" fill="#7FCB9D"/>
<path d="M2.91665 4.58325L4.58331 0.833252C4.91483 0.833252 5.23278 0.964948 5.4672 1.19937C5.70162 1.43379 5.83331 1.75173 5.83331 2.08325V3.74992H8.19165C8.31244 3.74855 8.43209 3.77346 8.5423 3.82293C8.65251 3.87239 8.75065 3.94522 8.82992 4.03638C8.90919 4.12754 8.96769 4.23484 9.00137 4.35086C9.03505 4.46687 9.04311 4.58882 9.02498 4.70825L8.44998 8.45825C8.41985 8.65696 8.31891 8.83809 8.16577 8.96825C8.01264 9.09842 7.81762 9.16886 7.61665 9.16658H2.91665M2.91665 4.58325V9.16658M2.91665 4.58325H1.66665C1.44563 4.58325 1.23367 4.67105 1.07739 4.82733C0.92111 4.98361 0.833313 5.19557 0.833313 5.41658V8.33325C0.833313 8.55427 0.92111 8.76623 1.07739 8.92251C1.23367 9.07879 1.44563 9.16658 1.66665 9.16658H2.91665" stroke="#1A9C4D" stroke-linecap="round" stroke-linejoin="round"/>
</svg>
