<svg width="16" height="16" viewBox="0 0 16 16" fill="none" xmlns="http://www.w3.org/2000/svg">
<path d="M15.9887 7.99995C15.9887 12.0403 12.9946 15.3805 9.10511 15.9225C8.74143 15.973 8.36935 15.9993 7.99166 15.9993C7.55569 15.9993 7.12757 15.9646 6.71066 15.8973C2.90295 15.2841 -0.00537109 11.9814 -0.00537109 7.99995C-0.00537109 3.58181 3.57539 0 7.99222 0C12.4091 0 15.9898 3.58181 15.9898 7.99995H15.9887Z" fill="#545457"/>
<path d="M3.23806 3.52856L6.92641 8.46127L3.21509 12.4719H4.0506L7.30018 8.9607L9.92551 12.4719H12.7683L8.87258 7.26172L12.3273 3.52856H11.4917L8.49937 6.76229L6.08138 3.52856H3.23862H3.23806ZM4.46639 4.14403H5.77205L11.5388 11.8564H10.2332L4.46639 4.14403Z" fill="white"/>
</svg>
