<svg width="20" height="20" viewBox="0 0 20 20" fill="none" xmlns="http://www.w3.org/2000/svg">
<path d="M11.7602 13.9405L11.5749 14.5784L11.5749 14.5784C11.1036 16.2008 10.868 17.012 10.5051 17.2175C10.1917 17.3949 9.80827 17.3949 9.49494 17.2175C9.13203 17.012 8.89639 16.2008 8.4251 14.5784L8.2398 13.9405C8.06059 13.3236 7.97098 13.0151 7.80333 12.7616C7.65493 12.5372 7.4628 12.3451 7.23842 12.1967C6.98492 12.029 6.67644 11.9394 6.05949 11.7602L5.4216 11.5749C3.7992 11.1036 2.988 10.868 2.7825 10.5051C2.60507 10.1917 2.60507 9.80827 2.7825 9.49494C2.988 9.13203 3.7992 8.89639 5.4216 8.4251L6.05949 8.23981C6.67644 8.06059 6.98492 7.97098 7.23842 7.80333C7.4628 7.65493 7.65493 7.4628 7.80333 7.23842C7.97098 6.98492 8.06059 6.67644 8.23981 6.05949L8.4251 5.4216C8.89639 3.7992 9.13203 2.988 9.49494 2.7825C9.80827 2.60507 10.1917 2.60507 10.5051 2.7825C10.868 2.988 11.1036 3.7992 11.5749 5.4216L11.7602 6.05949C11.9394 6.67644 12.029 6.98492 12.1967 7.23842C12.3451 7.4628 12.5372 7.65493 12.7616 7.80333C13.0151 7.97098 13.3236 8.06059 13.9405 8.23981L14.5784 8.4251C16.2008 8.89639 17.012 9.13203 17.2175 9.49494C17.3949 9.80827 17.3949 10.1917 17.2175 10.5051C17.012 10.868 16.2008 11.1036 14.5784 11.5749L13.9405 11.7602C13.3236 11.9394 13.0151 12.029 12.7616 12.1967C12.5372 12.3451 12.3451 12.5372 12.1967 12.7616C12.029 13.0151 11.9394 13.3236 11.7602 13.9405Z" stroke="#A7A7AD" stroke-width="1.2"/>
<path d="M4.44628 3.90917L4.15045 4.82025C4.06816 5.07368 3.70962 5.07368 3.62733 4.82025L3.3315 3.90917C3.25047 3.6596 3.05554 3.46346 2.80648 3.38088L1.89832 3.07975C1.64705 2.99643 1.64705 2.64101 1.89832 2.5577L2.80648 2.25656C3.05554 2.17398 3.25047 1.97784 3.3315 1.72828L3.62733 0.817194C3.70962 0.563765 4.06816 0.563765 4.15045 0.817194L4.44628 1.72828C4.52731 1.97784 4.72223 2.17398 4.97129 2.25656L5.87946 2.5577C6.13072 2.64101 6.13072 2.99643 5.87946 3.07975L4.97129 3.38088C4.72223 3.46346 4.52731 3.6596 4.44628 3.90917Z" fill="#A7A7AD"/>
<path d="M17.7796 17.383L17.4838 18.2941C17.4015 18.5475 17.043 18.5475 16.9607 18.2941L16.6648 17.383C16.5838 17.1334 16.3889 16.9373 16.1398 16.8547L15.2316 16.5536C14.9804 16.4703 14.9804 16.1149 15.2316 16.0315L16.1398 15.7304C16.3889 15.6478 16.5838 15.4517 16.6648 15.2021L16.9607 14.291C17.043 14.0376 17.4015 14.0376 17.4838 14.291L17.7796 15.2021C17.8606 15.4517 18.0556 15.6478 18.3046 15.7304L19.2128 16.0315C19.4641 16.1149 19.4641 16.4703 19.2128 16.5536L18.3046 16.8547C18.0556 16.9373 17.8606 17.1334 17.7796 17.383Z" fill="#A7A7AD"/>
</svg>
