<svg  viewBox="0 0 20 22" fill="none" xmlns="http://www.w3.org/2000/svg">
<path d="M11.5858 19.25C11.4247 19.5278 11.1934 19.7584 10.915 19.9187C10.6367 20.079 10.3212 20.1634 10 20.1634C9.67882 20.1634 9.36327 20.079 9.08496 19.9187C8.80664 19.7584 8.57533 19.5278 8.41417 19.25M15.5 7.33334C15.5 5.87465 14.9205 4.47571 13.8891 3.44426C12.8576 2.41281 11.4587 1.83334 10 1.83334C8.54131 1.83334 7.14236 2.41281 6.11091 3.44426C5.07946 4.47571 4.5 5.87465 4.5 7.33334C4.5 13.75 1.75 15.5833 1.75 15.5833H18.25C18.25 15.5833 15.5 13.75 15.5 7.33334Z" stroke="#9E9E9E" stroke-width="2" stroke-linecap="round" stroke-linejoin="round"/>
</svg>
