<svg viewBox="0 0 16 14" fill="none" xmlns="http://www.w3.org/2000/svg">
<path d="M0.666992 1.66655V5.66655M0.666992 5.66655H4.66699M0.666992 5.66655L3.76033 2.75989C4.47682 2.04303 5.36324 1.51936 6.33686 1.23774C7.31049 0.956115 8.33959 0.925722 9.32813 1.14939C10.3167 1.37306 11.2325 1.84351 11.99 2.51683C12.7476 3.19016 13.3222 4.04441 13.6603 4.99989M15.3337 12.3332V8.33322M15.3337 8.33322H11.3337M15.3337 8.33322L12.2403 11.2399C11.5238 11.9567 10.6374 12.4804 9.66378 12.762C8.69016 13.0437 7.66106 13.0741 6.67252 12.8504C5.68397 12.6267 4.76819 12.1563 4.01064 11.4829C3.25308 10.8096 2.67844 9.95536 2.34033 8.99989" stroke="white" stroke-width="1.5" stroke-linecap="round" stroke-linejoin="round"/>
</svg>
