<svg viewBox="0 0 22 22" fill="none" xmlns="http://www.w3.org/2000/svg">
<path d="M13.2222 17.4699L21 17.4699M1 17.4699H3.22222M3.22222 17.4699C3.22222 19.004 4.46588 20.2477 6 20.2477C7.53412 20.2477 8.77778 19.004 8.77778 17.4699C8.77778 15.9358 7.53412 14.6921 6 14.6921C4.46588 14.6921 3.22222 15.9358 3.22222 17.4699ZM19.8889 10.8032H21M1 10.8032H8.77778M12.1111 4.13654H21M12.1111 4.13654C12.1111 2.60242 10.8675 1.35876 9.33333 1.35876C7.79921 1.35876 6.55556 2.60242 6.55556 4.13654C6.55556 5.67067 7.79921 6.91432 9.33333 6.91432C10.8675 6.91432 12.1111 5.67067 12.1111 4.13654ZM1 4.13654H2.11111M16 13.581C14.4659 13.581 13.2222 12.3373 13.2222 10.8032C13.2222 9.26908 14.4659 8.02543 16 8.02543C17.5341 8.02543 18.7778 9.26908 18.7778 10.8032C18.7778 12.3373 17.5341 13.581 16 13.581Z" stroke="#005F97" stroke-width="2" stroke-linecap="round" stroke-linejoin="round"/>
</svg>
