<svg width="14" height="14" viewBox="0 0 14 14" fill="none" xmlns="http://www.w3.org/2000/svg">
  <path d="M4.08335 6.41675L6.41669 1.16675C6.88082 1.16675 7.32594 1.35112 7.65412 1.67931C7.98231 2.0075 8.16669 2.45262 8.16669 2.91675V5.25008H11.4684C11.6375 5.24817 11.805 5.28304 11.9593 5.35229C12.1136 5.42154 12.251 5.52351 12.3619 5.65113C12.4729 5.77875 12.5548 5.92898 12.602 6.09139C12.6491 6.25381 12.6604 6.42454 12.635 6.59175L11.83 11.8417C11.7878 12.1199 11.6465 12.3735 11.4321 12.5558C11.2177 12.738 10.9447 12.8366 10.6634 12.8334H4.08335M4.08335 6.41675V12.8334M4.08335 6.41675H2.33335C2.02393 6.41675 1.72719 6.53966 1.5084 6.75846C1.2896 6.97725 1.16669 7.27399 1.16669 7.58341V11.6667C1.16669 11.9762 1.2896 12.2729 1.5084 12.4917C1.72719 12.7105 2.02393 12.8334 2.33335 12.8334H4.08335" 
    stroke="#1A9C4D" stroke-width="1.2" stroke-linecap="round" stroke-linejoin="round"/>
</svg>
