<svg width="14" height="14" viewBox="0 0 14 14" fill="none" xmlns="http://www.w3.org/2000/svg">
  <path d="M9.91665 7.58325L7.58331 12.8333C7.11918 12.8333 6.67406 12.6489 6.34588 12.3207C6.01769 11.9925 5.83331 11.5474 5.83331 11.0833L5.83331 8.74992L2.53165 8.74992C2.36253 8.75183 2.19503 8.71696 2.04073 8.64771C1.88643 8.57846 1.74904 8.47649 1.63806 8.34887C1.52709 8.22125 1.44519 8.07102 1.39803 7.9086C1.35088 7.74619 1.3396 7.57546 1.36498 7.40825L2.16998 2.15825C2.21217 1.88006 2.35348 1.62648 2.56787 1.44425C2.78226 1.26202 3.05529 1.1634 3.33665 1.16659L9.91665 1.16659M9.91665 7.58325L9.91665 1.16659M9.91665 7.58325L11.6666 7.58325C11.9761 7.58325 12.2728 7.46034 12.4916 7.24154C12.7104 7.02275 12.8333 6.72601 12.8333 6.41659L12.8333 2.33325C12.8333 2.02383 12.7104 1.72709 12.4916 1.50829C12.2728 1.2895 11.9761 1.16659 11.6666 1.16659L9.91665 1.16659" 
    stroke="#1A9C4D" stroke-width="1.2" stroke-linecap="round" stroke-linejoin="round"/>
</svg>
