<svg viewBox="0 0 12 13" fill="none" xmlns="http://www.w3.org/2000/svg">
<path d="M7.41675 5.58325V9.95825M4.91675 5.58325L4.91675 9.95825M1.16675 3.08325H11.1667M9.91675 3.08325V10.4583C9.91675 11.1583 9.91688 11.5084 9.78064 11.7758C9.6608 12.011 9.46932 12.2021 9.23411 12.322C8.96672 12.4582 8.61694 12.4583 7.91687 12.4583H4.41687C3.7168 12.4583 3.36651 12.4582 3.09912 12.322C2.86392 12.2021 2.67283 12.011 2.55299 11.7758C2.41675 11.5084 2.41675 11.1583 2.41675 10.4583V3.08325H9.91675ZM8.66675 3.08325H3.66675C3.66675 2.50082 3.66675 2.2096 3.7619 1.97989C3.88877 1.6736 4.13195 1.43027 4.43823 1.3034C4.66795 1.20825 4.95932 1.20825 5.54175 1.20825H6.79175C7.37418 1.20825 7.66539 1.20825 7.8951 1.3034C8.20139 1.43027 8.44467 1.6736 8.57153 1.97989C8.66668 2.2096 8.66675 2.50083 8.66675 3.08325Z" stroke="#9E9E9E" stroke-linecap="round" stroke-linejoin="round"/>
</svg>
