<svg width="104" height="45" viewBox="0 0 104 45" fill="none" xmlns="http://www.w3.org/2000/svg">
<g clip-path="url(#clip0_2688_1275)">
<path d="M79.2461 18.2212L84.8757 28.306H92.5947C90.7495 32.1989 87.6637 34.1453 83.3373 34.1453C79.6827 34.1453 76.9015 33.152 74.9936 31.1654C73.0857 29.1788 72.1295 26.277 72.125 22.4601C72.125 19.0717 73.0207 16.373 74.8122 14.3641C75.7294 13.3509 76.8591 12.5514 78.1212 12.0225C79.3833 11.4936 80.7467 11.2482 82.1147 11.3038H82.9544H95.0468L102.578 0.000225506H81.9064C77.8572 -0.0606621 73.8608 0.92196 70.3044 2.8529C66.958 4.70014 64.2137 7.46587 62.3974 10.8217C60.5556 14.4397 59.5957 18.4397 59.5957 22.4969C59.5957 26.5541 60.5556 30.5541 62.3974 34.1721C64.2182 37.5336 66.9729 40.3004 70.3313 42.1409C73.9463 44.0902 78.0053 45.0751 82.1147 45.0002C85.472 45.0612 88.8019 44.3869 91.8692 43.0248C94.5481 41.8337 96.9586 40.1165 98.9566 37.9757L99.0104 37.9154C101.744 34.8411 103.24 30.8671 103.209 26.7592V18.2212H79.2461Z" fill="#0B81C7"/>
<path d="M13.1538 0H0L7.53758 11.3036H13.1538H19.5896V43.7612H30.9229V11.3438L22.8479 0H13.1538Z" fill="#072D4F"/>
<path d="M65.4543 0H27.6992L35.7608 11.3036H44.3665V43.7679H55.6998V18.4821C55.6562 16.0668 56.0358 13.6624 56.8217 11.3772C56.9963 10.7813 57.2113 10.1786 57.4532 9.58259L57.5271 9.50893C59.2019 5.64826 61.9532 2.34794 65.4543 0Z" fill="#072D4F"/>
<path d="M22.8479 0H13.1538H0L3.76879 5.65179H26.8719L22.8479 0Z" fill="#104966"/>
<path d="M65.4543 0H27.6992L31.8173 5.65179H59.6903C61.2515 3.43472 63.2047 1.51956 65.4543 0Z" fill="#104966"/>
<path d="M25.4076 11.2632H19.5898V11.3034V43.761L25.4076 39.6694V11.2632Z" fill="#02141F"/>
<path d="M50.137 11.2632H44.3125V11.3034V43.761L50.137 39.6694V11.2632Z" fill="#02141F"/>
<path d="M81.9062 0.00669275C77.857 -0.0541949 73.8606 0.928438 70.3042 2.85938C68.9124 3.63781 67.6161 4.57491 66.4414 5.65179H98.849L102.618 0H81.9062V0.00669275Z" fill="#1D9DDD"/>
<path d="M84.8759 28.3059H92.5949C93.1343 26.6238 93.4549 24.8797 93.5489 23.1162H81.9805L84.8759 28.3059Z" fill="#026FA5"/>
</g>
<defs>
<clipPath id="clip0_2688_1275">
<rect width="103.235" height="45" fill="white"/>
</clipPath>
</defs>
</svg>
