<svg width="104" height="45" viewBox="0 0 104 45" fill="none" xmlns="http://www.w3.org/2000/svg">
<g clip-path="url(#clip0_1307_710)">
<path d="M79.2463 18.2212L83.7407 26.2569L84.876 28.2993H92.595C90.7498 32.1922 87.664 34.1386 83.3376 34.1386C79.683 34.1386 76.9018 33.1453 74.9939 31.1587C73.086 29.1721 72.1298 26.2703 72.1253 22.4534C72.1253 19.065 73.021 16.3663 74.8125 14.3574C75.7303 13.3454 76.8603 12.5472 78.1223 12.0195C79.3844 11.4918 80.7475 11.2474 82.1149 11.3038H82.9547H95.047L98.8091 5.65201L102.578 0.000225506H81.9067C77.8574 -0.0606621 73.861 0.92196 70.3047 2.8529C69.9218 3.06719 69.559 3.28817 69.203 3.52254C68.9947 3.65647 68.7999 3.7971 68.5983 3.93773L68.1953 4.21898C67.9333 4.41317 67.6847 4.60737 67.4361 4.80827C67.3817 4.84699 67.33 4.8895 67.2816 4.93549C65.2934 6.56702 63.6396 8.5656 62.4111 10.8217C60.5692 14.4397 59.6094 18.4397 59.6094 22.4969C59.6094 26.5541 60.5692 30.5541 62.4111 34.1721C64.2318 37.5336 66.9866 40.3004 70.345 42.1409C73.956 44.0879 78.0101 45.0728 82.1149 45.0002C85.4723 45.0613 88.8022 44.3869 91.8694 43.0248C94.5484 41.8337 96.9589 40.1165 98.9569 37.9757L99.0107 37.9154C101.744 34.8411 103.24 30.8671 103.209 26.7592V18.2212H79.2463Z" fill="white"/>
<path d="M26.8719 5.65179L22.8479 0H13.1538H0L7.53758 11.3036H13.1538H19.5896V43.7612H30.9229V11.3438L26.8719 5.65179Z" fill="white"/>
<path d="M60.2008 4.95557L60.2613 4.87521C60.4292 4.65423 60.6039 4.43994 60.7853 4.20557L60.8391 4.1453C61.2332 3.67209 61.6631 3.20333 62.1289 2.73905L62.2364 2.63191L62.8074 2.08949L63.0291 1.88861L63.5464 1.43994L63.8084 1.22566C63.9831 1.07834 64.1712 0.931021 64.3593 0.790396L64.6078 0.596194C64.8833 0.388605 65.1654 0.187709 65.4543 -0.0131836H27.6992L35.7608 11.2904H44.3061V43.748L44.3665 43.7011V43.748H55.6998V18.4824C55.6562 16.067 56.0358 13.6626 56.8217 11.3774C56.9963 10.7815 57.2113 10.1788 57.4532 9.5828L57.5271 9.50914C58.1162 8.14861 58.8432 6.85168 59.697 5.6386C59.8649 5.41093 60.0262 5.18324 60.2008 4.95557Z" fill="white"/>
</g>
<defs>
<clipPath id="clip0_1307_710">
<rect width="103.235" height="45" fill="white"/>
</clipPath>
</defs>
</svg>
